<?xml version="1.0" encoding="UTF-8" standalone="no"?>
<svg
   width="8.6666698in"
   height="2.2395799in"
   viewBox="0 0 832 215"
   version="1.1"
   id="svg1"
   sodipodi:docname="bravus.svg"
   xmlns:inkscape="http://www.inkscape.org/namespaces/inkscape"
   xmlns:sodipodi="http://sodipodi.sourceforge.net/DTD/sodipodi-0.dtd"
   xmlns="http://www.w3.org/2000/svg"
   xmlns:svg="http://www.w3.org/2000/svg">
  <defs
     id="defs1" />
  <sodipodi:namedview
     id="namedview1"
     pagecolor="#ffffff"
     bordercolor="#000000"
     borderopacity="0.25"
     inkscape:showpageshadow="2"
     inkscape:pageopacity="0.0"
     inkscape:pagecheckerboard="0"
     inkscape:deskcolor="#d1d1d1"
     inkscape:document-units="in" />
  <path
     id="Selección"
     fill="none"
     stroke="#000000"
     stroke-width="1"
     d="m 355.20554,24.33 c 0,0 2,0 2,0 0,0 17.42,44 17.42,44 0,0 30.26,81 30.26,81 0,0 10.32,28 10.32,28 0.94,2.39 3.66,7.94 1.96,10.27 -1.53,2.1 -6.6,1.73 -8.96,1.73 0,0 -11,0 -11,0 -1.85,-0.04 -4,0.02 -5.61,-1.02 -4.73,-3.05 -6.52,-18.28 -10.69,-20.95 -1.61,-1.03 -3.87,-0.99 -5.7,-1.02 0,0 -35,0 -35,0 -2.73,0 -6.33,-0.33 -8.5,1.59 -6.75,5.99 -1.65,21.14 -15.5,21.4 0,0 -12,0 -12,0 -2.18,0 -6.53,0.37 -7.94,-1.59 -1.68,-2.35 0.82,-7.97 1.74,-10.41 0,0 10.25,-28 10.25,-28 0,0 28.89,-77 28.89,-77 z m 347,107 c 2.94,18.76 21.32,32 40,30.91 10.35,-0.6 24.81,-7.52 23.44,-19.91 -1.76,-15.9 -25.02,-20.16 -37.44,-24.02 -17.62,-5.48 -32.34,-13.85 -37.24,-32.98 -1.04,-4.02 -0.81,-9.75 -0.76,-14 0.23,-19.1 15.5,-34.03 33,-39.28 20.72,-6.21 43.97,-1.39 61,11.71 4.37,3.36 6.7,5.07 10,9.57 0,0 -12.13,16 -12.13,16 -1.34,1.71 -3.45,4.81 -5.87,4.81 -2.12,0 -9.88,-8.36 -13,-10.44 -9.13,-6.09 -22.65,-8.43 -33,-4.24 -6.49,2.63 -12.61,9.45 -11.64,16.87 1.05,7.95 7.91,11.56 14.64,14.05 13.72,5.08 28.48,7.39 41,15.5 22.88,14.82 26.32,47.19 8.67,67.41 -8.51,9.76 -23.83,15.89 -36.67,16.04 -22.46,0.26 -36.38,-2.37 -52.99,-19.01 -2.81,-2.81 -11.23,-13.01 -10.91,-16.99 0.21,-2.59 3.17,-5.23 4.9,-7 4.94,-5.06 9.24,-10.86 15,-15 z m -572,-26 c 5.78,3.26 10.28,6.52 14.21,12 12.36,17.24 7.43,42.67 -7.25,56.91 -12.08,11.73 -28.71,14.97 -44.960001,15.09 0,0 -45,0 -45,0 -8.16,-0.15 -7.99,-2.78 -8,-10 0,0 0,-114 0,-114 0,0 0,-26 0,-26 0,-1.94 -0.26,-5.72 0.99,-7.26 1.71,-2.11 6.51,-1.73 9.01,-1.74 0,0 39,0 39,0 14.360001,0.03 29.030001,3.42 39.990001,13.19 13.19,11.74 17.85,33.65 10.66,49.81 -2.28,5.12 -4.86,8.01 -8.65,12 z m 75,31.1 c 0,0 0,42.9 0,42.9 -0.01,2.54 0.32,6.48 -1.6,8.41 -1.64,1.63 -4.26,1.55 -6.4,1.59 -3.78,0.07 -14.72,0.81 -17.27,-1.73 -2.08,-2.09 -1.73,-6.51 -1.73,-9.27 0,0 0,-113 0,-113 0,0 0,-26 0,-26 0.01,-2.35 -0.2,-5.61 1.59,-7.4 1.93,-1.92 5.87,-1.59 8.41,-1.6 0,0 29,0 29,0 23.48,0 45.15,0.72 60.21,22 2.24,3.16 5.38,9.34 6.7,13 2.19,6.13 3.08,12.53 3.09,19 0.01,6.5 0.19,9.52 -1.48,16 -4.7,18.27 -20.04,34.05 -39.52,35 0,0 33,53 33,53 -6.6,1.61 -15.1,1.02 -22,1 -11,-0.02 -10.85,-3.77 -17,-13 0,0 -18.67,-29 -18.67,-29 -1.78,-2.68 -5.8,-9.56 -8.52,-10.9 -1.79,-0.73 -5.7,-0.19 -7.81,0 z m 264,65.9 c -1.75,-3 -4.84,-9.33 -6.58,-14 0,0 -11.77,-32 -11.77,-32 0,0 -34.44,-96 -34.44,-96 0,0 -7.16,-20 -7.16,-20 -0.77,-2.13 -2.47,-6.33 -0.99,-8.4 1.41,-1.97 5.76,-1.59 7.94,-1.59 0,0 12,0 12,0 8.64,0.16 8.03,3.45 11.34,12.99 0,0 11.99,35 11.99,35 0,0 17.67,49 17.67,49 0,0 25,-75 25,-75 1.31,-3.84 5.96,-18.34 8.41,-20.4 1.93,-1.61 4.23,-1.55 6.59,-1.59 0,0 11,0 11,0 2.61,0 7.4,-0.46 8.79,2.31 1.19,2.34 -1.3,8.2 -2.13,10.68 0,0 -9.67,28 -9.67,28 0,0 -34.68,96 -34.68,96 z m 80.59,-170.97 c 4.2,-1.79 10.76,-1.05 15.41,-1.03 2.57,0.02 6.3,-0.22 8.26,1.74 2.08,2.09 1.73,6.5 1.74,9.26 0,0 0,87 0,87 0.01,9.7 2.07,18.66 9.3,25.68 13.38,13.02 35.78,9.67 44.79,-6.68 3.27,-5.91 3.9,-12.38 3.91,-19 0,0 0,-43 0,-43 0,0 0,-45 0,-45 0,-2.54 -0.33,-6.48 1.59,-8.4 2.4,-2.39 12.82,-1.62 16.41,-1.6 2.35,0.02 5.61,-0.19 7.4,1.6 1.92,1.92 1.59,5.86 1.6,8.4 0,0 0,98 0,98 -0.05,28.98 -23.36,50.96 -52,51 0,0 -8,0 -8,0 -5.97,-0.07 -12.4,-1.39 -18,-3.43 -19.38,-7.07 -33.76,-26.77 -34,-47.57 0,0 0,-60 0,-60 0,0 0,-33 0,-33 0,-4.44 -1.07,-10.25 1.59,-13.97 z M 66.205539,93.33 c 10.3,0 30.37,1.4 38.980001,-3.41 11.97,-6.69 10.34,-24.09 -1.98,-29.62 -7.060001,-3.17 -28.290001,-1.97 -37.000001,-1.97 z m 139.000001,15 c 0,0 29,0 29,0 4.97,-0.02 10.59,-0.55 15,-3.08 15.77,-9.09 13.52,-35.23 -1,-43.55 -8.78,-5.03 -32.17,-3.37 -43,-3.37 z m 152,-14 c 0,0 -6.43,15 -6.43,15 0,0 -9.57,30 -9.57,30 0,0 31,0 31,0 z m -291.000001,66 c 0,0 30,0 30,0 5.950001,-0.01 12.660001,-0.5 18.000001,-3.41 13.74,-7.49 12.99,-27.7 -1.01,-34.17 -3.3,-1.53 -12.18,-2.37 -15.990001,-2.41 0,0 -31,0 -31,0 z"
     style="fill:#000000;fill-opacity:1" />
</svg>
